<svg width="20" height="20" viewBox="0 0 20 20" shape-rendering="geometricPrecision" xmlns="http://www.w3.org/2000/svg" xmlns:xlink="http://www.w3.org/1999/xlink"><g><path d="M0 4C0 1.79086 1.79086 0 4 0L16 0C18.2091 0 20 1.79086 20 4L20 16C20 18.2091 18.2091 20 16 20L4 20C1.79086 20 0 18.2091 0 16L0 4Z" shape-rendering="geometricPrecision" fill="#483EFF" style="fill-rule:evenodd" transform="matrix(1 0 0 1 0 0)"></path> <path d="M3.43298 5.01877L0.707107 2.29289L-0.707107 3.70711L3.43298 7.84719L10.5731 0.707107L9.15885 -0.707107L3.43298 5.01877Z" stroke-dasharray="" stroke-linecap="butt" stroke-linejoin="miter" stroke-width="2" shape-rendering="geometricPrecision" fill="#FFFFFF" transform="matrix(1 0 0 1 5 7)" fill-rule="evenodd"></path> </g></svg>