<svg width="80" height="80" viewBox="0 0 80 80" shape-rendering="geometricPrecision" xmlns="http://www.w3.org/2000/svg" xmlns:xlink="http://www.w3.org/1999/xlink"><g><path d="M40 80C62.0914 80 80 62.0914 80 40C80 17.9086 62.0914 0 40 0C17.9086 0 0 17.9086 0 40C0 62.0914 17.9086 80 40 80Z" shape-rendering="geometricPrecision" fill="#F9818E" style="fill-rule:evenodd" transform="matrix(1 0 0 1 0 0)"></path><path d="M30.131 60.8333C30.8985 60.684 31.6615 60.5122 32.419 60.3182C33.7039 59.96 34.9701 59.5378 36.2128 59.0531C37.4582 58.571 38.6787 58.027 39.8697 57.4229C41.0604 56.8162 42.22 56.1502 43.3441 55.4275C44.4664 54.7062 45.552 53.9293 46.5968 53.0996C47.6442 52.2679 48.6494 51.3843 49.6084 50.4521C50.5648 49.5221 51.4742 48.5449 52.3332 47.5242C53.1941 46.5024 54.0034 45.4382 54.7581 44.3355C55.5119 43.2343 56.2102 42.096 56.8505 40.9251C57.4904 39.7528 58.0712 38.5493 58.591 37.319C59.1119 36.0886 59.5709 34.8328 59.9664 33.5565C60.3046 32.4394 60.5939 31.308 60.8333 30.1656L37.0407 6.36438C32.7978 2.1199 27.2572 0 21.7091 0C16.1606 0 10.6074 2.11957 6.36441 6.36438C-2.12147 14.8533 -2.12147 28.5692 6.36441 37.0582L30.131 60.8333Z" shape-rendering="geometricPrecision" fill="#E96170" style="fill-rule:evenodd" transform="matrix(1 0 0 1 18.33333396911621 18.33333396911621)"></path><path d="M36.9804 6.35096C32.7451 2.11543 27.2083 0 21.6699 0C16.1315 0 10.5882 2.11543 6.35294 6.35096C-2.11765 14.822 -2.11765 28.509 6.35294 36.98C14.8235 45.4511 28.5098 45.4511 36.9804 36.98C45.451 28.509 45.451 14.822 36.9804 6.35096Z" shape-rendering="geometricPrecision" fill="#FFFFFF" style="fill-rule:evenodd" transform="matrix(1 0 0 1 18.33333396911621 18.33333396911621)"></path></g></svg>